<?xml version="1.0" encoding="utf-8"?>
<!-- Generator: Adobe Illustrator 26.0.3, SVG Export Plug-In . SVG Version: 6.00 Build 0)  -->
<svg version="1.1" id="Layer_1" xmlns="http://www.w3.org/2000/svg" xmlns:xlink="http://www.w3.org/1999/xlink" x="0px" y="0px"
	 viewBox="0 0 579 531" enable-background="new 0 0 579 531" xml:space="preserve">
<g>
	<g>
		<g>
			
				<linearGradient id="SVGID_1_" gradientUnits="userSpaceOnUse" x1="290.6628" y1="-50.4505" x2="62.9068" y2="-118.0871" gradientTransform="matrix(0.9966 8.290000e-02 -8.290000e-02 0.9966 79.9374 355.6019)">
				<stop  offset="0" style="stop-color:#FFF2A5"/>
				<stop  offset="1" style="stop-color:#FFED2B"/>
			</linearGradient>
			<path fill="url(#SVGID_1_)" d="M355.2,156.6c62,17,68.4,87.9,14.3,158.3s-148.3,113.6-210.3,96.5c-62-17-68.4-87.9-14.3-158.3
				S293.1,139.5,355.2,156.6z M258.2,282.6c-0.7-0.2-1.7,0.3-2.2,1s-0.5,1.5,0.2,1.7c0.7,0.2,1.7-0.3,2.2-1
				C258.9,283.5,258.8,282.8,258.2,282.6z"/>
			
				<linearGradient id="SVGID_00000158023396260595292130000015553449507509064622_" gradientUnits="userSpaceOnUse" x1="-454.3792" y1="-1361.7622" x2="-281.6897" y2="-1228.2156" gradientTransform="matrix(0.9323 0.3617 -0.3617 0.9323 124.6712 1614.2454)">
				<stop  offset="0" style="stop-color:#FFB800"/>
				<stop  offset="5.126056e-03" style="stop-color:#FFB902"/>
				<stop  offset="0.1815" style="stop-color:#FFCC43"/>
				<stop  offset="0.3494" style="stop-color:#FFDD79"/>
				<stop  offset="0.5044" style="stop-color:#FFE9A4"/>
				<stop  offset="0.6437" style="stop-color:#FFF2C2"/>
				<stop  offset="0.7624" style="stop-color:#FFF8D4"/>
				<stop  offset="0.8463" style="stop-color:#FFFADB"/>
				<stop  offset="1" style="stop-color:#FDFAE1"/>
			</linearGradient>
			<path fill="url(#SVGID_00000158023396260595292130000015553449507509064622_)" d="M357.3,140.3c-66.6-18.3-167.8,28.1-226,103.7
				C73.1,319.6,80,395.7,146.6,414c28,7.7,62,4,96.4-8.5l5.8-2.1c-32,11.6-63.7,15.1-89.7,7.9c-62-17-68.4-87.9-14.3-158.3
				c54.1-70.4,148.3-113.6,210.3-96.5c60,16.5,67.9,83.4,19.3,151.5c1.2-1.7,2.4-3.3,3.6-5C430.3,229.9,421.8,158,357.3,140.3z"/>
			<path fill="#828282" d="M243,405.5l5.8-2.1c44.3-16.1,89.2-47.8,120.6-88.6c1.7-2.3,3.4-4.5,5-6.8l3.6-5
				c-1.7,2.4-3.5,4.8-5.4,7.3C338.8,354.2,290.6,388.2,243,405.5z"/>
			
				<linearGradient id="SVGID_00000174594002941790852580000005581061006404347532_" gradientUnits="userSpaceOnUse" x1="-246.782" y1="3297.573" x2="47.0177" y2="3297.573" gradientTransform="matrix(0.8111 -0.585 0.585 0.8111 -1478.9102 -2301.0288)">
				<stop  offset="4.878050e-03" style="stop-color:#B87400"/>
				<stop  offset="8.104123e-02" style="stop-color:#BF7A00"/>
				<stop  offset="0.2544" style="stop-color:#C98300"/>
				<stop  offset="0.4756" style="stop-color:#CC8600"/>
				<stop  offset="0.6318" style="stop-color:#D28700"/>
				<stop  offset="0.9805" style="stop-color:#DD8900"/>
			</linearGradient>
			<path fill="url(#SVGID_00000174594002941790852580000005581061006404347532_)" d="M251.5,508.5l-7.1,1.8
				c75-19.1,155.6-71,209.5-141c9.4-12.2,17.6-24.5,24.6-36.6l-3.6,6.3c-6.7,11.6-14.5,23.3-23.5,35
				C400,440.8,323.2,490.3,251.5,508.5z"/>
			
				<linearGradient id="SVGID_00000149340128875432395540000014465551756847626653_" gradientUnits="userSpaceOnUse" x1="-357.552" y1="3123.1687" x2="149.3449" y2="3123.1687" gradientTransform="matrix(0.8111 -0.585 0.585 0.8111 -1478.9102 -2301.0288)">
				<stop  offset="0" style="stop-color:#E2A500"/>
				<stop  offset="0.3293" style="stop-color:#FFF07F"/>
				<stop  offset="0.4698" style="stop-color:#FEEE7C"/>
				<stop  offset="0.5869" style="stop-color:#FDE871"/>
				<stop  offset="0.6955" style="stop-color:#FADE60"/>
				<stop  offset="0.7991" style="stop-color:#F5D048"/>
				<stop  offset="0.8992" style="stop-color:#F0BE28"/>
				<stop  offset="0.9952" style="stop-color:#E9A802"/>
				<stop  offset="1" style="stop-color:#E9A700"/>
			</linearGradient>
			<path fill="url(#SVGID_00000149340128875432395540000014465551756847626653_)" d="M402.9,94.6c-29.9-8.2-64.8-7-101.1,1.9
				c-2.4,0.6-4.8,1.2-7.2,1.8c34.6-8.5,68-9.7,96.5-1.8c88,24.2,97,124.7,20.2,224.5S200.9,482,112.9,457.9
				C35.7,436.6,19.3,356.7,68.2,270l-3.6,6.5c-51.3,90.8-34.1,174.6,46.8,196.8c92.2,25.3,232.2-38.9,312.7-143.5
				C504.5,225.2,495.1,119.9,402.9,94.6z"/>
			
				<linearGradient id="SVGID_00000060006200173981361980000009814763798626421914_" gradientUnits="userSpaceOnUse" x1="-357.5252" y1="3209.1421" x2="150.5511" y2="3209.1421" gradientTransform="matrix(0.8111 -0.585 0.585 0.8111 -1478.9102 -2301.0288)">
				<stop  offset="0" style="stop-color:#B26F00"/>
				<stop  offset="0.124" style="stop-color:#D59F42"/>
				<stop  offset="0.2659" style="stop-color:#FFDA92"/>
				<stop  offset="0.339" style="stop-color:#FFC660"/>
				<stop  offset="0.3665" style="stop-color:#FABF53"/>
				<stop  offset="0.4998" style="stop-color:#E1A117"/>
				<stop  offset="0.5634" style="stop-color:#D79500"/>
				<stop  offset="0.6857" style="stop-color:#F4AA00"/>
				<stop  offset="0.7585" style="stop-color:#FFB300"/>
				<stop  offset="1" style="stop-color:#B47000"/>
			</linearGradient>
			<path fill="url(#SVGID_00000060006200173981361980000009814763798626421914_)" d="M85.2,476.7l-29.9-39.5
				c12.7,16.7,31.4,29.2,56.1,36c92.2,25.3,232.2-38.9,312.7-143.5c58.9-76.6,69.6-153.5,35-199.2l29.9,39.5
				c34.7,45.7,24,122.7-35,199.2c-80.5,104.6-220.5,168.8-312.7,143.5C116.6,506,97.9,493.4,85.2,476.7z"/>
			
				<linearGradient id="SVGID_00000075147799974326429990000015057237241598419883_" gradientUnits="userSpaceOnUse" x1="-39.164" y1="-92.4409" x2="369.0083" y2="-92.4409" gradientTransform="matrix(0.9966 8.290000e-02 -8.290000e-02 0.9966 79.9374 355.6019)">
				<stop  offset="0" style="stop-color:#FFE000"/>
				<stop  offset="4.635737e-02" style="stop-color:#FFE31D"/>
				<stop  offset="0.1396" style="stop-color:#FFE951"/>
				<stop  offset="0.227" style="stop-color:#FFEE7B"/>
				<stop  offset="0.3059" style="stop-color:#FFF198"/>
				<stop  offset="0.3735" style="stop-color:#FFF3AB"/>
				<stop  offset="0.422" style="stop-color:#FFF4B1"/>
				<stop  offset="0.5011" style="stop-color:#FFF3BA"/>
				<stop  offset="0.6331" style="stop-color:#FFF3C1"/>
				<stop  offset="1" style="stop-color:#FFF3C3"/>
			</linearGradient>
			<path fill="url(#SVGID_00000075147799974326429990000015057237241598419883_)" d="M391,96.4c88,24.2,97,124.7,20.2,224.5
				C334.5,420.7,200.9,482,112.9,457.9c-88-24.2-97-124.7-20.2-224.5C169.5,133.5,303.1,72.2,391,96.4z M357.3,140.3
				c-66.6-18.3-167.8,28.1-226,103.7C73.1,319.6,80,395.7,146.6,414c66.6,18.3,167.8-28.1,226-103.7
				C430.8,234.7,423.9,158.6,357.3,140.3z"/>
			<g>
				<g>
					<g>
						
							<linearGradient id="SVGID_00000071532628480363647600000006269841701395035034_" gradientUnits="userSpaceOnUse" x1="173.2582" y1="287.1848" x2="331.3934" y2="287.1848">
							<stop  offset="0" style="stop-color:#DC8E00"/>
							<stop  offset="0.1927" style="stop-color:#C06F00"/>
							<stop  offset="0.255" style="stop-color:#C37300"/>
							<stop  offset="0.3148" style="stop-color:#CC7E00"/>
							<stop  offset="0.3733" style="stop-color:#DA9200"/>
							<stop  offset="0.4244" style="stop-color:#ECA900"/>
							<stop  offset="0.4823" style="stop-color:#EAA700"/>
							<stop  offset="0.5144" style="stop-color:#E59F00"/>
							<stop  offset="0.5401" style="stop-color:#DC9100"/>
							<stop  offset="0.5537" style="stop-color:#D58600"/>
							<stop  offset="0.6004" style="stop-color:#DB8900"/>
							<stop  offset="0.7061" style="stop-color:#E28B00"/>
							<stop  offset="1" style="stop-color:#E48C00"/>
						</linearGradient>
						<path fill="url(#SVGID_00000071532628480363647600000006269841701395035034_)" d="M294.3,220.8c4.8,6.5,2.8,14.2,2.2,16
							c0.2-0.1-8.5,20.6-30.2,55.2c-2.2,3.5-4.3,7.2-6.1,10.8c4.8-3.1,10-6.5,15.1-9.2c2.7-1.4,5.4-2.8,8.1-3.9
							c18.2-8,36-9.9,43.6,0.2c8.4,11.3,2.1,30.7,1.8,31.7c0-0.2-0.8-3.9-6.9-5.6c-6.5-1.8-18.3-2.9-33.3,3.7
							c-1.6,0.7-3.3,1.5-5,2.4c-21.5,11.5-40,38.7-41,40.1c0,0-0.2,0.7-0.2,0.7c-0.9,0-18.1-0.9-32.1-11.8c-0.2-0.2-0.6-0.3-0.9-0.7
							c-8.8-11.9,38.6-85.7,53.8-108.9c-5.1,1.8-10.3,3.9-15.7,6.2c-8,3.5-16.1,7.5-23.6,11.5c-18.7,10-34.5,20.4-40.1,23.4
							c-0.3,0.1-0.5,0.3-0.8,0.4c-2.6,1.1-4.3,0.6-5.8-1.5c-5.2-7.1-4.1-29.8-4-31c2.2-2.3,10-7.4,21.1-13.3c6.5-3.5,14-7.2,22-10.7
							c20.4-9,43.4-16.5,58.3-14.8C285.6,212.9,291.2,216.7,294.3,220.8z"/>
					</g>
					<g>
						
							<linearGradient id="SVGID_00000070802503648117710360000013332534152353862076_" gradientUnits="userSpaceOnUse" x1="91.7564" y1="1123.9971" x2="232.5276" y2="1123.9971" gradientTransform="matrix(0.9488 -0.316 0.316 0.9488 -260.1989 -730.626)">
							<stop  offset="0" style="stop-color:#FFD400"/>
							<stop  offset="1" style="stop-color:#FFE200"/>
						</linearGradient>
						<path fill="url(#SVGID_00000070802503648117710360000013332534152353862076_)" d="M290.4,219c4.8,6.5,2.8,14.2,2.2,16
							c0.2-0.1-8.5,20.6-30.2,55.2c-2.2,3.5-4.3,7.2-6.1,10.8c4.8-3.1,10-6.5,15.1-9.2c2.7-1.4,5.4-2.8,8.1-3.9
							c18.2-8,36-9.9,43.6,0.2c8.4,11.3,2.1,30.7,1.8,31.7c0-0.2-0.8-3.9-6.9-5.6c-6.5-1.8-18.3-2.9-33.3,3.7
							c-1.6,0.7-3.3,1.5-5,2.4c-21.5,11.5-40,38.7-41,40.1l-0.1-0.5c0,0.9-0.1,1.2-0.1,1.2c-0.9,0-18.1-0.9-32.1-11.8
							c-0.2-0.2-0.6-0.3-0.9-0.7c-8.8-11.9,38.6-85.7,53.9-109c-5.1,1.8-10.3,3.9-15.7,6.2c-8,3.5-16.1,7.5-23.6,11.5
							c-18.7,10-34.5,20.4-40.1,23.4c-0.3,0.1-0.5,0.3-0.8,0.4c-2.6,1.1-4.3,0.6-5.8-1.5c-5.2-7.1-4.1-29.8-4-31
							c2.2-2.3,10-7.4,21.1-13.3c6.5-3.5,14-7.2,22-10.7c20.4-9,43.4-16.5,58.3-14.8C281.7,211.1,287.3,214.8,290.4,219z"/>
					</g>
					<g>
						
							<linearGradient id="SVGID_00000109728614550033849620000012470805754938274701_" gradientUnits="userSpaceOnUse" x1="169.3884" y1="285.3815" x2="327.4805" y2="285.3815">
							<stop  offset="0" style="stop-color:#FFFABB"/>
							<stop  offset="0.1168" style="stop-color:#FFFAB5"/>
							<stop  offset="0.2669" style="stop-color:#FFFAA5"/>
							<stop  offset="0.4351" style="stop-color:#FFFA8B"/>
							<stop  offset="0.6166" style="stop-color:#FFFA66"/>
							<stop  offset="0.8082" style="stop-color:#FFF937"/>
							<stop  offset="1" style="stop-color:#FFF900"/>
						</linearGradient>
						<path fill="url(#SVGID_00000109728614550033849620000012470805754938274701_)" d="M290.4,219c4.8,6.5,2.8,14.2,2.2,16
							c0.2-0.1-8.5,20.6-30.2,55.2c-2.2,3.5-4.3,7.2-6.1,10.8c4.8-3.1,10-6.5,15.1-9.2c2.7-1.4,5.4-2.8,8.1-3.9
							c18.2-8,36-9.9,43.6,0.2c8.4,11.3,2.1,30.7,1.8,31.7c0-0.2-0.8-3.9-6.9-5.6c-6.5-1.8-18.3-2.9-33.3,3.7
							c-1.6,0.7-3.3,1.5-5,2.4c-21.5,11.5-40,38.7-41,40.1c0,0-0.2,0.7-0.2,0.7c-0.9,0-18.1-0.9-32.1-11.8c-0.2-0.2-0.6-0.3-0.9-0.7
							c-8.8-11.9,38.6-85.7,53.9-109c-5.1,1.8-10.3,3.9-15.7,6.2c-8,3.5-16.1,7.5-23.6,11.5c-18.7,10-34.5,20.4-40.1,23.4
							c-0.3,0.1-0.5,0.3-0.8,0.4c-2.6,1.1-4.3,0.6-5.8-1.5c-5.2-7.1-4.1-29.8-4-31c2.2-2.3,10-7.4,21.1-13.3c6.5-3.5,14-7.2,22-10.7
							c20.4-9,43.4-16.5,58.3-14.8C281.7,211.1,287.3,214.8,290.4,219z"/>
					</g>
				</g>
			</g>
		</g>
		<g>
			<g>
				<path fill="#B37200" d="M85.8,476.7c-0.5,0-1-0.2-1.3-0.7l-12.9-17.6c-0.5-0.7-0.4-1.7,0.3-2.2c0.7-0.5,1.7-0.4,2.2,0.3
					l12.9,17.6c0.5,0.7,0.4,1.7-0.3,2.2C86.5,476.6,86.1,476.7,85.8,476.7z"/>
			</g>
			<path fill="#B37100" d="M95.7,485.3c-0.5,0-1-0.2-1.3-0.7L81,466.3c-0.5-0.7-0.4-1.8,0.4-2.3c0.7-0.5,1.8-0.4,2.3,0.4l13.4,18.3
				c0.5,0.7,0.4,1.8-0.4,2.3C96.4,485.2,96.1,485.3,95.7,485.3z"/>
			<path fill="#B47100" d="M106.8,492.9c-0.5,0-1-0.2-1.4-0.7l-13.8-18.9c-0.5-0.8-0.4-1.8,0.4-2.4c0.7-0.5,1.8-0.4,2.4,0.4
				l13.8,18.9c0.5,0.8,0.4,1.8-0.4,2.4C107.4,492.8,107.1,492.9,106.8,492.9z"/>
			<path fill="#B47000" d="M118.8,499.4c-0.5,0-1.1-0.2-1.4-0.7l-14.3-19.6c-0.6-0.8-0.4-1.9,0.4-2.4c0.8-0.6,1.9-0.4,2.4,0.4
				l14.3,19.6c0.6,0.8,0.4,1.9-0.4,2.4C119.5,499.3,119.2,499.4,118.8,499.4z"/>
			<path fill="#B56F00" d="M131.8,504.8c-0.6,0-1.1-0.3-1.4-0.7l-14.8-20.2c-0.6-0.8-0.4-1.9,0.4-2.5c0.8-0.6,1.9-0.4,2.5,0.4
				l14.8,20.2c0.6,0.8,0.4,1.9-0.4,2.5C132.6,504.7,132.2,504.8,131.8,504.8z"/>
			<path fill="#B56F00" d="M145.8,509c-0.6,0-1.1-0.3-1.5-0.8l-15.2-20.9c-0.6-0.8-0.4-2,0.4-2.6c0.8-0.6,2-0.4,2.6,0.4l15.2,20.9
				c0.6,0.8,0.4,2-0.4,2.6C146.6,508.9,146.2,509,145.8,509z"/>
			<path fill="#B66E00" d="M160.7,512c-0.6,0-1.2-0.3-1.5-0.8l-15.7-21.5c-0.6-0.8-0.4-2,0.4-2.6c0.8-0.6,2-0.4,2.6,0.4l15.7,21.5
				c0.6,0.8,0.4,2-0.4,2.6C161.5,511.9,161.1,512,160.7,512z"/>
			<path fill="#B66D00" d="M176.5,513.7c-0.6,0-1.2-0.3-1.6-0.8l-16.2-22.2c-0.6-0.9-0.4-2.1,0.4-2.7c0.9-0.6,2.1-0.4,2.7,0.4
				l16.2,22.2c0.6,0.9,0.4,2.1-0.4,2.7C177.3,513.5,176.9,513.7,176.5,513.7z"/>
			<path fill="#B76D00" d="M193.1,513.9c-0.6,0-1.2-0.3-1.6-0.8l-16.6-22.8c-0.6-0.9-0.4-2.1,0.4-2.8c0.9-0.6,2.1-0.5,2.8,0.4
				l16.6,22.8c0.6,0.9,0.4,2.1-0.4,2.8C193.9,513.8,193.5,513.9,193.1,513.9z"/>
			<path fill="#B76C00" d="M210.5,512.8c-0.6,0-1.3-0.3-1.6-0.8l-17.1-23.5c-0.7-0.9-0.5-2.2,0.4-2.8c0.9-0.7,2.2-0.5,2.8,0.4
				l17.1,23.5c0.7,0.9,0.5,2.2-0.4,2.8C211.3,512.7,210.9,512.8,210.5,512.8z"/>
			<path fill="#B86B00" d="M228.7,510.2c-0.6,0-1.3-0.3-1.7-0.9l-17.5-24.1c-0.7-0.9-0.5-2.2,0.5-2.9c0.9-0.7,2.2-0.5,2.9,0.5
				l17.5,24.1c0.7,0.9,0.5,2.2-0.5,2.9C229.5,510,229.1,510.2,228.7,510.2z"/>
			<path fill="#B96A00" d="M247.6,506c-0.7,0-1.3-0.3-1.7-0.9l-18-24.8c-0.7-1-0.5-2.3,0.5-3c1-0.7,2.3-0.5,3,0.5l18,24.8
				c0.7,1,0.5,2.3-0.5,3C248.4,505.8,248,506,247.6,506z"/>
			<path fill="#B96A00" d="M267.1,500.2c-0.7,0-1.3-0.3-1.8-0.9l-18.5-25.4c-0.7-1-0.5-2.3,0.5-3.1c1-0.7,2.3-0.5,3.1,0.5l18.5,25.4
				c0.7,1,0.5,2.3-0.5,3.1C268,500,267.6,500.2,267.1,500.2z"/>
			<path fill="#BA6900" d="M287.3,492.7c-0.7,0-1.4-0.3-1.8-0.9l-18.9-26.1c-0.7-1-0.5-2.4,0.5-3.1c1-0.7,2.4-0.5,3.1,0.5l18.9,26.1
				c0.7,1,0.5,2.4-0.5,3.1C288.2,492.5,287.8,492.7,287.3,492.7z"/>
			<path fill="#BA6800" d="M308.1,483.5c-0.7,0-1.4-0.3-1.9-0.9l-19.4-26.7c-0.7-1-0.5-2.5,0.5-3.2c1-0.7,2.5-0.5,3.2,0.5l19.4,26.7
				c0.7,1,0.5,2.5-0.5,3.2C309.1,483.3,308.6,483.5,308.1,483.5z"/>
			<path fill="#BB6800" d="M329.5,472.4c-0.7,0-1.4-0.3-1.9-1l-19.9-27.4c-0.8-1-0.5-2.5,0.5-3.3c1-0.8,2.5-0.5,3.3,0.5l19.9,27.4
				c0.8,1,0.5,2.5-0.5,3.3C330.5,472.3,330,472.4,329.5,472.4z"/>
			<g>
				<path fill="#BB6700" d="M351.4,459.6c-0.7,0-1.5-0.3-1.9-1l-20.3-28c-0.8-1.1-0.5-2.6,0.5-3.3c1.1-0.8,2.6-0.5,3.3,0.5l20.3,28
					c0.8,1.1,0.5,2.6-0.5,3.3C352.4,459.4,351.9,459.6,351.4,459.6z"/>
			</g>
			<path fill="#BF6C00" d="M373.2,443.7c-0.7,0-1.4-0.3-1.9-1l-19.7-27c-0.8-1-0.5-2.5,0.5-3.3c1-0.8,2.5-0.5,3.3,0.5l19.7,27
				c0.8,1,0.5,2.5-0.5,3.3C374.2,443.5,373.7,443.7,373.2,443.7z"/>
			<path fill="#C37000" d="M393.5,426.9c-0.7,0-1.4-0.3-1.8-0.9l-19.1-26.1c-0.7-1-0.5-2.5,0.5-3.2c1-0.7,2.4-0.5,3.2,0.5l19.1,26.1
				c0.7,1,0.5,2.4-0.5,3.2C394.4,426.7,393.9,426.9,393.5,426.9z"/>
			<path fill="#C87500" d="M412.1,409.3c-0.7,0-1.4-0.3-1.8-0.9l-18.4-25.1c-0.7-1-0.5-2.4,0.5-3.1c1-0.7,2.4-0.5,3.1,0.5l18.4,25.1
				c0.7,1,0.5,2.4-0.5,3.1C413,409.2,412.5,409.3,412.1,409.3z"/>
			<path fill="#CC7A00" d="M429,391.1c-0.7,0-1.3-0.3-1.8-0.9l-17.8-24.1c-0.7-1-0.5-2.3,0.5-3.1c1-0.7,2.3-0.5,3.1,0.5l17.8,24.1
				c0.7,1,0.5,2.3-0.5,3.1C429.9,391,429.5,391.1,429,391.1z"/>
			<path fill="#D07E00" d="M444.2,372.4c-0.6,0-1.3-0.3-1.7-0.9l-17.1-23.1c-0.7-0.9-0.5-2.3,0.4-3c0.9-0.7,2.3-0.5,3,0.4l17.1,23.1
				c0.7,0.9,0.5,2.3-0.4,3C445.1,372.2,444.7,372.4,444.2,372.4z"/>
			<path fill="#D48300" d="M457.7,353.2c-0.6,0-1.3-0.3-1.7-0.8l-16.5-22.2c-0.7-0.9-0.5-2.2,0.4-2.9c0.9-0.7,2.2-0.5,2.9,0.4
				l16.5,22.2c0.7,0.9,0.5,2.2-0.4,2.9C458.6,353.1,458.1,353.2,457.7,353.2z"/>
			<path fill="#D98800" d="M469.3,333.8c-0.6,0-1.2-0.3-1.6-0.8l-15.9-21.2c-0.7-0.9-0.5-2.2,0.4-2.9c0.9-0.7,2.2-0.5,2.9,0.4
				l15.9,21.2c0.7,0.9,0.5,2.2-0.4,2.9C470.2,333.7,469.7,333.8,469.3,333.8z"/>
			<path fill="#DD8D00" d="M479.1,314.2c-0.6,0-1.2-0.3-1.6-0.8l-15.2-20.2c-0.7-0.9-0.5-2.1,0.4-2.8c0.9-0.7,2.1-0.5,2.8,0.4
				l15.2,20.2c0.7,0.9,0.5,2.1-0.4,2.8C479.9,314.1,479.5,314.2,479.1,314.2z"/>
			<path fill="#E19100" d="M486.9,294.7c-0.6,0-1.2-0.3-1.5-0.8l-14.6-19.3c-0.6-0.8-0.5-2.1,0.4-2.7c0.9-0.6,2.1-0.5,2.7,0.4
				l14.6,19.3c0.6,0.8,0.5,2.1-0.4,2.7C487.7,294.5,487.3,294.7,486.9,294.7z"/>
			<path fill="#E59600" d="M492.7,275.2c-0.6,0-1.1-0.3-1.5-0.7l-14-18.3c-0.6-0.8-0.5-2,0.3-2.6c0.8-0.6,2-0.5,2.7,0.3l14,18.3
				c0.6,0.8,0.5,2-0.3,2.6C493.5,275.1,493.1,275.2,492.7,275.2z"/>
			<path fill="#EA9B00" d="M496.5,255.9c-0.5,0-1.1-0.2-1.5-0.7l-13.3-17.3c-0.6-0.8-0.5-2,0.3-2.6c0.8-0.6,2-0.5,2.6,0.3L498,253
				c0.6,0.8,0.5,2-0.3,2.6C497.3,255.8,496.9,255.9,496.5,255.9z"/>
			<path fill="#EE9F00" d="M498.3,237.1c-0.5,0-1.1-0.2-1.4-0.7L484.2,220c-0.6-0.8-0.5-1.9,0.3-2.5c0.8-0.6,1.9-0.5,2.5,0.3
				l12.7,16.3c0.6,0.8,0.5,1.9-0.3,2.5C499,236.9,498.7,237.1,498.3,237.1z"/>
			<path fill="#F2A400" d="M497.9,218.7c-0.5,0-1-0.2-1.4-0.7l-12.1-15.4c-0.6-0.8-0.5-1.8,0.3-2.4c0.8-0.6,1.8-0.5,2.4,0.3
				l12.1,15.4c0.6,0.8,0.5,1.8-0.3,2.4C498.6,218.5,498.3,218.7,497.9,218.7z"/>
			<path fill="#F7A900" d="M495.3,200.9c-0.5,0-1-0.2-1.3-0.6l-11.4-14.4c-0.6-0.7-0.5-1.8,0.3-2.4c0.7-0.6,1.8-0.5,2.4,0.3
				l11.4,14.4c0.6,0.7,0.5,1.8-0.3,2.4C496.1,200.7,495.7,200.9,495.3,200.9z"/>
			<path fill="#FBAD00" d="M490.5,183.8c-0.5,0-1-0.2-1.3-0.6l-10.8-13.4c-0.6-0.7-0.5-1.7,0.2-2.3c0.7-0.6,1.7-0.5,2.3,0.2
				l10.8,13.4c0.6,0.7,0.5,1.7-0.2,2.3C491.2,183.7,490.9,183.8,490.5,183.8z"/>
			<g>
				<path fill="#FFB200" d="M483.5,167.6c-0.5,0-0.9-0.2-1.2-0.6l-10.1-12.5c-0.6-0.7-0.4-1.7,0.2-2.2c0.7-0.6,1.7-0.5,2.2,0.2
					l10.1,12.5c0.6,0.7,0.4,1.7-0.2,2.2C484.2,167.5,483.8,167.6,483.5,167.6z"/>
			</g>
		</g>
	</g>
	<g>
		
			<radialGradient id="SVGID_00000140730461799023594610000007404777038860474013_" cx="-273.344" cy="-16262.8945" r="157.9957" gradientTransform="matrix(0.9323 0.3617 -5.530000e-02 0.1424 -248.5599 2574.9587)" gradientUnits="userSpaceOnUse">
			<stop  offset="0" style="stop-color:#D4F8FF"/>
			<stop  offset="1" style="stop-color:#E9FBFF;stop-opacity:0"/>
		</radialGradient>
		<path fill="url(#SVGID_00000140730461799023594610000007404777038860474013_)" d="M543.2,217.4c-4.8,12.4-74.7-3.1-156-34.6
			c-81.3-31.6-143.4-67.2-138.6-79.6c4.8-12.4,74.7,3.1,156,34.6C486,169.3,548,205,543.2,217.4z"/>
		
			<radialGradient id="SVGID_00000021101290986353741680000002996220255939048878_" cx="-6958.1968" cy="-25066.7285" r="157.9947" gradientTransform="matrix(-0.3617 0.9323 -0.1424 -5.530000e-02 -5690.3423 5261.1914)" gradientUnits="userSpaceOnUse">
			<stop  offset="0" style="stop-color:#D4F8FF"/>
			<stop  offset="1" style="stop-color:#E9FBFF;stop-opacity:0"/>
		</radialGradient>
		<path fill="url(#SVGID_00000021101290986353741680000002996220255939048878_)" d="M338.8,307.5c-12.4-4.8,3.1-74.7,34.6-156
			C405,70.2,440.7,8.2,453.1,13c12.4,4.8-3.1,74.7-34.6,156C386.9,250.3,351.2,312.4,338.8,307.5z"/>
		
			<radialGradient id="SVGID_00000132067390740388907860000005314847439883544215_" cx="-5236.9429" cy="32154.0117" r="157.9896" gradientTransform="matrix(-0.4035 -0.915 0.1398 -6.160000e-02 -6212.2979 -2650.8613)" gradientUnits="userSpaceOnUse">
			<stop  offset="0" style="stop-color:#D4F8FF"/>
			<stop  offset="1" style="stop-color:#E9FBFF;stop-opacity:0"/>
		</radialGradient>
		<path fill="url(#SVGID_00000132067390740388907860000005314847439883544215_)" d="M332.2,15.7c12.2-5.4,50.6,55,85.8,134.8
			c35.2,79.8,53.8,148.9,41.7,154.3c-12.2,5.4-50.6-55-85.8-134.8C338.7,90.2,320,21.1,332.2,15.7z"/>
		
			<radialGradient id="SVGID_00000135664233407943341830000000834881710657759912_" cx="-9014.0791" cy="-5010.8774" r="157.9894" gradientTransform="matrix(-0.915 0.4035 -6.160000e-02 -0.1398 -8160.6123 3096.9143)" gradientUnits="userSpaceOnUse">
			<stop  offset="0" style="stop-color:#D4F8FF"/>
			<stop  offset="1" style="stop-color:#E9FBFF;stop-opacity:0"/>
		</radialGradient>
		<path fill="url(#SVGID_00000135664233407943341830000000834881710657759912_)" d="M251.4,224c-5.4-12.2,55-50.6,134.8-85.8
			C466,103,535.1,84.3,540.5,96.5c5.4,12.2-55,50.6-134.8,85.8C325.8,217.5,256.8,236.2,251.4,224z"/>
	</g>
</g>
</svg>
