<?xml version="1.0" encoding="utf-8"?>
<!-- Generator: Adobe Illustrator 26.0.3, SVG Export Plug-In . SVG Version: 6.00 Build 0)  -->
<svg version="1.1" id="Layer_1" xmlns="http://www.w3.org/2000/svg" xmlns:xlink="http://www.w3.org/1999/xlink" x="0px" y="0px"
	 viewBox="0 0 579 531" enable-background="new 0 0 579 531" xml:space="preserve">
<g>
	<g enable-background="new    ">
		
			<linearGradient id="SVGID_1_" gradientUnits="userSpaceOnUse" x1="-12106.8213" y1="7962.8452" x2="-11899.0938" y2="7714.3872" gradientTransform="matrix(-0.4086 0.9127 0.9127 0.4086 -11861.1006 8042.7666)">
			<stop  offset="0" style="stop-color:#F4E733"/>
			<stop  offset="2.408382e-02" style="stop-color:#E6C731"/>
			<stop  offset="5.387816e-02" style="stop-color:#D7A62F"/>
			<stop  offset="8.617486e-02" style="stop-color:#CC8B2D"/>
			<stop  offset="0.1213" style="stop-color:#C2772C"/>
			<stop  offset="0.1606" style="stop-color:#BC682B"/>
			<stop  offset="0.2077" style="stop-color:#B8602A"/>
			<stop  offset="0.2826" style="stop-color:#B75D2A"/>
			<stop  offset="0.2834" style="stop-color:#B8602A"/>
			<stop  offset="0.294" style="stop-color:#CA7F2F"/>
			<stop  offset="0.3057" style="stop-color:#D89A34"/>
			<stop  offset="0.3193" style="stop-color:#E4B037"/>
			<stop  offset="0.3351" style="stop-color:#EEC13A"/>
			<stop  offset="0.3546" style="stop-color:#F4CC3C"/>
			<stop  offset="0.382" style="stop-color:#F8D33D"/>
			<stop  offset="0.4581" style="stop-color:#F9D53D"/>
			<stop  offset="0.4779" style="stop-color:#EEC13A"/>
			<stop  offset="0.5195" style="stop-color:#DA9D34"/>
			<stop  offset="0.5613" style="stop-color:#CB8130"/>
			<stop  offset="0.6032" style="stop-color:#C06D2D"/>
			<stop  offset="0.645" style="stop-color:#B9612B"/>
			<stop  offset="0.6867" style="stop-color:#B75D2A"/>
			<stop  offset="0.6977" style="stop-color:#BA622A"/>
			<stop  offset="0.7207" style="stop-color:#BE682B"/>
			<stop  offset="0.7626" style="stop-color:#C9792E"/>
			<stop  offset="0.8211" style="stop-color:#D48B31"/>
			<stop  offset="0.8846" style="stop-color:#DB9533"/>
			<stop  offset="0.9616" style="stop-color:#DD9834"/>
			<stop  offset="0.9758" style="stop-color:#E6AB37"/>
			<stop  offset="1" style="stop-color:#F9D53D"/>
		</linearGradient>
		<path fill="url(#SVGID_1_)" d="M48.1,328.5c-0.1-0.1-0.2-0.1-0.3-0.2c-0.1-0.1-0.3-0.2-0.5-0.2c-0.5-0.3-0.9-0.6-1.3-0.8
			c-0.4-0.3-0.8-0.6-1.1-0.8c-0.1-0.1-0.2-0.2-0.3-0.3c-0.1,0-0.1-0.1-0.1-0.1c-0.2-0.2-0.4-0.3-0.5-0.5c-0.3-0.3-0.6-0.6-0.8-0.9
			c-0.3-0.3-0.5-0.6-0.7-0.9c-0.1-0.1-0.2-0.2-0.2-0.3c0,0-0.1-0.1-0.1-0.1c-0.1-0.2-0.2-0.3-0.3-0.5c-0.2-0.3-0.4-0.7-0.6-1
			c-0.2-0.3-0.3-0.7-0.5-1.1c-0.1-0.2-0.1-0.3-0.2-0.5l-16.6-45.1c0.4,1.1,0.9,2.1,1.6,3c0,0.1,0.1,0.1,0.1,0.2
			c0.7,0.9,1.4,1.8,2.4,2.6c0.1,0,0.1,0.1,0.2,0.1c0.9,0.8,2,1.5,3.2,2.2c0.1,0.1,0.2,0.1,0.3,0.2c1.2,0.7,2.6,1.3,4.1,1.7
			l107.8,35.4l16.6,45.1L52.2,330.2c-0.4-0.1-0.8-0.3-1.2-0.4c-0.7-0.3-1.4-0.6-2-0.9C48.7,328.8,48.4,328.6,48.1,328.5z"/>
		
			<linearGradient id="SVGID_00000174567762136692224370000014817009328726096028_" gradientUnits="userSpaceOnUse" x1="-12288.3018" y1="8121.3555" x2="-11838.7441" y2="7777.5967" gradientTransform="matrix(-0.4086 0.9127 0.9127 0.4086 -11861.1006 8042.7666)">
			<stop  offset="1.189230e-02" style="stop-color:#F4E733"/>
			<stop  offset="1.420256e-02" style="stop-color:#F2E133"/>
			<stop  offset="2.622822e-02" style="stop-color:#EBC633"/>
			<stop  offset="3.941920e-02" style="stop-color:#E5B234"/>
			<stop  offset="5.421108e-02" style="stop-color:#E0A334"/>
			<stop  offset="7.189029e-02" style="stop-color:#DE9B34"/>
			<stop  offset="0.1001" style="stop-color:#DD9834"/>
			<stop  offset="0.1437" style="stop-color:#D08531"/>
			<stop  offset="0.2147" style="stop-color:#B75D2A"/>
			<stop  offset="0.2814" style="stop-color:#B75D2A"/>
			<stop  offset="0.6867" style="stop-color:#B75D2A"/>
			<stop  offset="0.6977" style="stop-color:#BA622A"/>
			<stop  offset="0.7207" style="stop-color:#BE682B"/>
			<stop  offset="0.7476" style="stop-color:#CB7F2F"/>
			<stop  offset="0.7912" style="stop-color:#DB9E34"/>
			<stop  offset="0.8369" style="stop-color:#E8B638"/>
			<stop  offset="0.885" style="stop-color:#F2C83B"/>
			<stop  offset="0.937" style="stop-color:#F7D23C"/>
			<stop  offset="1" style="stop-color:#F9D53D"/>
		</linearGradient>
		<path fill="url(#SVGID_00000174567762136692224370000014817009328726096028_)" d="M463.6,213.6l71-95.2c2.4-3.3,3.9-6.5,4.5-9.5
			c0.6-2.9,0.3-5.6-0.5-8l16.6,45.1c0.9,2.4,1.1,5.1,0.5,8c-0.6,3-2,6.2-4.5,9.5l-71,95.2L463.6,213.6z"/>
		
			<linearGradient id="SVGID_00000045589938745085494060000003304702164148430000_" gradientUnits="userSpaceOnUse" x1="-12235.0664" y1="8242.1348" x2="-11804.6611" y2="7832.0957" gradientTransform="matrix(-0.4086 0.9127 0.9127 0.4086 -11861.1006 8042.7666)">
			<stop  offset="0" style="stop-color:#F4E733"/>
			<stop  offset="2.408382e-02" style="stop-color:#E6C731"/>
			<stop  offset="5.387816e-02" style="stop-color:#D7A62F"/>
			<stop  offset="8.617486e-02" style="stop-color:#CC8B2D"/>
			<stop  offset="0.1213" style="stop-color:#C2772C"/>
			<stop  offset="0.1606" style="stop-color:#BC682B"/>
			<stop  offset="0.2077" style="stop-color:#B8602A"/>
			<stop  offset="0.2826" style="stop-color:#B75D2A"/>
			<stop  offset="0.3309" style="stop-color:#B75D2A"/>
			<stop  offset="0.6245" style="stop-color:#B75D2A"/>
			<stop  offset="0.6889" style="stop-color:#BA622A"/>
			<stop  offset="0.8242" style="stop-color:#BE682B"/>
			<stop  offset="0.9616" style="stop-color:#DD9834"/>
			<stop  offset="0.9758" style="stop-color:#E6AB37"/>
			<stop  offset="1" style="stop-color:#F9D53D"/>
		</linearGradient>
		<path fill="url(#SVGID_00000045589938745085494060000003304702164148430000_)" d="M183.9,468.3c-0.7-0.3-1.3-0.5-2-0.8
			c-0.3-0.2-0.7-0.3-1-0.5c-0.1,0-0.1-0.1-0.2-0.1c-0.1-0.1-0.3-0.1-0.4-0.2c-0.5-0.3-0.9-0.5-1.3-0.8c-0.4-0.3-0.7-0.5-1.1-0.8
			c-0.3-0.3-0.7-0.6-1-0.9c-0.2-0.2-0.4-0.4-0.6-0.6c0,0,0,0-0.1-0.1c-0.1-0.1-0.1-0.1-0.2-0.2c-0.3-0.3-0.5-0.6-0.8-0.9
			c-0.2-0.3-0.5-0.6-0.7-1c-0.2-0.3-0.4-0.7-0.6-1c-0.2-0.4-0.4-0.7-0.5-1.1c-0.1-0.2-0.1-0.3-0.2-0.5l-16.6-45.1
			c0.6,1.7,1.6,3.3,2.8,4.6c0,0,0,0,0.1,0.1c1.2,1.3,2.7,2.5,4.4,3.4c0.1,0,0.1,0.1,0.2,0.1c1.7,0.9,3.6,1.7,5.7,2.2
			c0,0,0.1,0,0.1,0c2.1,0.5,4.3,0.9,6.7,1c0.7,0,1.5,0,2.2,0c1.7,0,3.5,0.1,5.3-0.1c0.2,0,0.4-0.1,0.6-0.1c2.5-0.3,5-0.7,7.5-1.4
			c0.1,0,0.1,0,0.2-0.1c2.6-0.7,5.2-1.6,7.8-2.7c0.1,0,0.1-0.1,0.2-0.1c2.6-1.2,5.2-2.5,7.7-4.1l116.2-75.7l16.6,45.1l-116.2,75.7
			c-0.1,0.1-0.2,0.1-0.3,0.2c-0.6,0.4-1.1,0.7-1.7,1c-0.6,0.3-1.1,0.6-1.7,1c-0.5,0.3-1.1,0.6-1.7,0.9c-0.6,0.3-1.1,0.5-1.7,0.8
			c-0.2,0.1-0.4,0.2-0.6,0.3c-0.1,0-0.1,0-0.2,0.1c-0.3,0.1-0.6,0.3-0.9,0.4c-0.6,0.2-1.2,0.5-1.7,0.7c-0.6,0.2-1.2,0.4-1.8,0.7
			c-0.6,0.2-1.3,0.4-1.9,0.6c-0.5,0.1-1,0.3-1.5,0.4c-0.1,0-0.1,0-0.2,0c-0.1,0-0.2,0.1-0.4,0.1c-0.8,0.2-1.5,0.4-2.3,0.5
			c-0.9,0.2-1.8,0.3-2.6,0.5c-0.7,0.1-1.5,0.2-2.2,0.3c-0.2,0-0.4,0.1-0.6,0.1c-0.2,0-0.4,0.1-0.7,0.1c-1.6,0.1-3.1,0.1-4.6,0
			c-0.7,0-1.5,0.1-2.2,0c-2.3-0.2-4.6-0.5-6.6-1c0,0,0,0-0.1,0c0,0-0.1,0-0.1,0C185.6,468.9,184.7,468.6,183.9,468.3z"/>
		
			<linearGradient id="SVGID_00000077324783620281877970000010003618230176499593_" gradientUnits="userSpaceOnUse" x1="-12127.6523" y1="8156.6011" x2="-11588.6309" y2="7624.3682" gradientTransform="matrix(-0.4086 0.9127 0.9127 0.4086 -11861.1006 8042.7666)">
			<stop  offset="0" style="stop-color:#F4E733"/>
			<stop  offset="3.046221e-02" style="stop-color:#EAD131"/>
			<stop  offset="8.531367e-02" style="stop-color:#DBAE2F"/>
			<stop  offset="0.1413" style="stop-color:#CF932D"/>
			<stop  offset="0.198" style="stop-color:#C7802C"/>
			<stop  offset="0.2559" style="stop-color:#C2752B"/>
			<stop  offset="0.3171" style="stop-color:#C0712B"/>
			<stop  offset="0.3329" style="stop-color:#CA832E"/>
			<stop  offset="0.3691" style="stop-color:#DEA635"/>
			<stop  offset="0.4031" style="stop-color:#EDC039"/>
			<stop  offset="0.4337" style="stop-color:#F6D03C"/>
			<stop  offset="0.4581" style="stop-color:#F9D53D"/>
			<stop  offset="0.4779" style="stop-color:#EEC13A"/>
			<stop  offset="0.5195" style="stop-color:#DA9D34"/>
			<stop  offset="0.5613" style="stop-color:#CB8130"/>
			<stop  offset="0.6032" style="stop-color:#C06D2D"/>
			<stop  offset="0.645" style="stop-color:#B9612B"/>
			<stop  offset="0.6867" style="stop-color:#B75D2A"/>
			<stop  offset="0.6977" style="stop-color:#BA622A"/>
			<stop  offset="0.7207" style="stop-color:#BE682B"/>
			<stop  offset="0.7626" style="stop-color:#C9792E"/>
			<stop  offset="0.8211" style="stop-color:#D48B31"/>
			<stop  offset="0.8846" style="stop-color:#DB9533"/>
			<stop  offset="0.9616" style="stop-color:#DD9834"/>
			<stop  offset="0.9758" style="stop-color:#E6AB37"/>
			<stop  offset="1" style="stop-color:#F9D53D"/>
		</linearGradient>
		<path fill="url(#SVGID_00000077324783620281877970000010003618230176499593_)" d="M324.3,340.8l135.3-8.3c2.5-0.2,5-0.5,7.5-1
			c0,0,0,0,0,0c2.4-0.5,4.7-1.2,7-2c0.1,0,0.2-0.1,0.2-0.1c2.2-0.8,4.4-1.7,6.4-2.8c0.1,0,0.1-0.1,0.2-0.1c2.1-1.1,4-2.2,5.8-3.5
			c0,0,0,0,0,0c1.8-1.2,3.4-2.6,4.9-4c0.1-0.1,0.2-0.1,0.2-0.2c1.1-1.1,2.1-2.2,3-3.3c1-1.2,1.8-2.4,2.6-3.6
			c0.4-0.6,0.8-1.1,1.1-1.7c0.9-1.8,1.7-3.7,2-5.5c0.5-2.7,0.4-5.4-0.6-8l16.6,45.1c1,2.6,1.1,5.3,0.6,8c-0.4,1.8-1.1,3.7-2,5.5
			c-0.3,0.6-0.7,1.1-1.1,1.7c-0.8,1.2-1.6,2.4-2.6,3.6c-0.2,0.3-0.4,0.6-0.6,0.9c-0.7,0.8-1.4,1.5-2.1,2.2c-0.1,0.1-0.2,0.1-0.2,0.2
			c-0.1,0.1-0.2,0.1-0.2,0.2c-0.5,0.4-0.9,0.9-1.4,1.3c-0.6,0.5-1.2,1-1.8,1.4c-0.6,0.4-1.1,0.8-1.7,1.3c0,0,0,0,0,0c0,0,0,0,0,0
			c-0.5,0.4-1.1,0.7-1.6,1.1c-0.5,0.3-1.1,0.7-1.6,1c-0.5,0.3-1.1,0.6-1.6,0.9c-0.3,0.2-0.6,0.3-1,0.5c-0.1,0-0.1,0.1-0.2,0.1
			c-0.2,0.1-0.3,0.2-0.5,0.2c-0.5,0.3-1.1,0.5-1.7,0.8c-0.6,0.3-1.1,0.5-1.7,0.7c-0.6,0.2-1.2,0.5-1.7,0.7c-0.3,0.1-0.6,0.2-0.8,0.3
			c-0.1,0-0.2,0.1-0.2,0.1c-0.2,0.1-0.5,0.2-0.7,0.3c-0.6,0.2-1.2,0.4-1.9,0.6c-0.7,0.2-1.4,0.4-2.1,0.6c-0.8,0.2-1.5,0.4-2.3,0.5
			c0,0,0,0,0,0c0,0,0,0,0,0c-0.9,0.2-1.8,0.3-2.6,0.5c-1.2,0.2-2.4,0.3-3.6,0.4c-0.4,0-0.8,0.1-1.2,0.1l-135.3,8.3L324.3,340.8z"/>
		
			<linearGradient id="SVGID_00000088813523890661258440000002976325837837671313_" gradientUnits="userSpaceOnUse" x1="-12207.3604" y1="7756.0171" x2="-11986.1709" y2="8093.6216" gradientTransform="matrix(-0.4086 0.9127 0.9127 0.4086 -11861.1006 8042.7666)">
			<stop  offset="0" style="stop-color:#F6EC72"/>
			<stop  offset="1" style="stop-color:#F2B839"/>
		</linearGradient>
		<path fill="url(#SVGID_00000088813523890661258440000002976325837837671313_)" d="M156.1,410.7l-12.6-90.2L35.6,285.1
			c-9.9-3.3-13.8-10.4-12.3-18.2c1.5-7.8,8.5-16.2,20.2-22l127.4-64l49.5-97.6c9.1-17.9,40.2-28.3,57-19l91.3,50.5l138.5-24.9
			c20.7-3.7,34.4,5.9,31.8,19c-0.6,3-2,6.2-4.5,9.5l-71,95.2l36.1,82.3c1.2,2.8,1.5,5.8,0.9,8.8c-2.6,13.1-20.8,26.5-41,27.8
			l-135.3,8.3l-116.2,75.7C186.8,430.4,158.4,427.3,156.1,410.7z"/>
		
			<linearGradient id="SVGID_00000067222231506549929460000011241526016448605609_" gradientUnits="userSpaceOnUse" x1="-299.5417" y1="-324.1429" x2="-7.8576" y2="-38.7997" gradientTransform="matrix(0.996 8.910000e-02 -8.910000e-02 0.996 466.965 439.5659)">
			<stop  offset="7.574820e-02" style="stop-color:#FFFFFF"/>
			<stop  offset="1" style="stop-color:#FFFFFF;stop-opacity:0"/>
		</linearGradient>
		<path opacity="0.7" fill="url(#SVGID_00000067222231506549929460000011241526016448605609_)" d="M208.2,416.5l116.2-75.7
			l135.3-8.3c20.2-1.3,38.4-14.7,41-27.8c0.6-3,0.4-6-0.9-8.8l-36.1-82.3l71-95.2c2.4-3.3,3.9-6.5,4.5-9.5
			c2.6-13.1-11.1-22.7-31.8-19l-138.5,24.9l-91.3-50.5c-16.8-9.3-47.8,1.1-57,19l-49.5,97.6l-127.4,64c-11.7,5.9-18.6,14.3-20.2,22
			c-1.5,7.8,2.3,14.9,12.3,18.2l107.8,35.4l12.6,90.2C158.4,427.3,186.8,430.4,208.2,416.5z M166.9,420.2c-3.3-1.5-7.4-4.4-8.2-9.9
			l-12.9-91.8l-109.4-36c-8-2.6-11.9-8.2-10.5-15.1c0.2-1.3,0.7-2.6,1.3-3.9c2.8-6.3,9-12.1,17.5-16.3l128.2-64.4l49.9-98.4
			c4.1-8.1,13.9-15.3,25.4-18.9c10.6-3.2,21-2.9,27.9,0.9l92.2,51l139.4-25.1c11-2,20.5-0.1,25.6,5.1c2.9,2.9,4,6.7,3.2,10.8
			c-0.2,1.2-0.7,2.5-1.2,3.7c-0.7,1.6-1.6,3.1-2.8,4.7l-71.9,96.5l36.7,83.7c1,2.2,1.2,4.7,0.7,7.3c-0.2,1.2-0.6,2.5-1.2,3.7
			c-4.4,9.8-19,20.8-37.4,22l-135.9,8.4l-116.7,76.1C192.5,423.6,175.9,424.3,166.9,420.2z"/>
	</g>
</g>
</svg>
